<svg width="30" height="30" viewBox="0 0 30 30" fill="none" xmlns="http://www.w3.org/2000/svg">
<path d="M29.8677 14.8981C29.8677 14.9504 29.8677 15.0028 29.8622 15.0551C29.825 15.908 29.5742 16.7379 29.1327 17.4687C28.7015 18.1817 28.1037 18.7794 27.3907 19.2107C26.6411 19.665 25.787 19.9182 24.9109 19.9456C24.8538 19.9456 24.7966 19.9456 24.7387 19.9456H14.9898C14.1166 19.9415 13.2603 19.7037 12.5101 19.2568C11.7798 18.8241 11.1739 18.2097 10.7514 17.4734C10.3289 16.7371 10.1043 15.904 10.0992 15.0551C10.0992 15.0434 10.0992 15.0324 10.0992 15.0207C10.0986 13.7203 10.6126 12.4726 11.529 11.55C12.4453 10.6274 13.6895 10.1048 14.9898 10.0964H15.0243C15.8924 10.0959 16.7452 10.3251 17.4962 10.7606C18.2472 11.1961 18.8697 11.8224 19.3005 12.5761C19.4066 12.7612 19.5002 12.9531 19.5808 13.1506C19.6401 13.2925 19.6917 13.4378 19.7372 13.5866L19.7434 13.6307C19.7495 13.6803 19.7525 13.7302 19.7524 13.7801C19.7528 13.9678 19.7107 14.1532 19.6291 14.3222C19.5337 14.5198 19.388 14.6888 19.2067 14.8123C19.0254 14.9358 18.8148 15.0095 18.596 15.0259C18.3772 15.0423 18.158 15.0009 17.9603 14.9058C17.7625 14.8107 17.5933 14.6652 17.4696 14.4841C17.4233 14.4171 17.3841 14.3456 17.3525 14.2706C17.3367 14.2203 17.3194 14.1714 17.3001 14.1225C17.12 13.6665 16.807 13.2751 16.4016 12.9992C15.9963 12.7233 15.5174 12.5757 15.027 12.5754H14.9926C14.3501 12.5843 13.7369 12.8458 13.2858 13.3032C12.8346 13.7607 12.5817 14.3774 12.5817 15.02C12.5817 15.0317 12.5817 15.0427 12.5817 15.0545C12.5903 15.6911 12.847 16.2994 13.2973 16.7497C13.7476 17.1999 14.3558 17.4567 14.9926 17.4653H24.9116C25.5312 17.4025 26.1112 17.118 26.5572 16.6833C27.0031 16.2486 27.31 15.6757 27.3886 15.0579V14.7135C27.3887 14.6254 27.3844 14.5373 27.3755 14.4497C27.3759 14.4478 27.3759 14.446 27.3755 14.4442C27.3466 13.8173 27.2702 13.1935 27.1468 12.5782C26.9763 11.7263 26.7153 10.895 26.3684 10.0985C26.3437 10.0406 26.3182 9.98278 26.2913 9.92488C25.9219 9.10878 25.4643 8.33549 24.9268 7.61881C24.9213 7.61054 24.915 7.60294 24.9089 7.59467C24.2088 6.665 23.3814 5.83841 22.4511 5.13907L22.427 5.12116C20.2914 3.52017 17.6934 2.6562 15.0243 2.65938H14.9898C14.1567 2.66099 13.3259 2.74687 12.5101 2.91564C11.6575 3.09101 10.8262 3.35725 10.0303 3.70979C9.16661 4.09141 8.34961 4.57102 7.59535 5.13907H7.55056V5.17284C6.63134 5.87147 5.81391 6.69469 5.12179 7.61881H5.07082V7.68768C3.99794 9.13909 3.25742 10.8087 2.90169 12.5782C2.74062 13.3833 2.65963 14.2024 2.65991 15.0234V15.0579C2.66167 15.8675 2.74266 16.6749 2.90169 17.4687C3.25742 19.2382 3.99794 20.9078 5.07082 22.3592V22.4281H5.12179C5.81391 23.3522 6.63134 24.1754 7.55056 24.874V24.9078H7.59535C8.34961 25.4759 9.16661 25.9555 10.0303 26.3371C10.8262 26.6896 11.6575 26.9559 12.5101 27.1312C13.3259 27.3 14.1567 27.3859 14.9898 27.3875H18.7095C19.0383 27.3875 19.3536 27.5181 19.5862 27.7506C19.8187 27.9831 19.9493 28.2985 19.9493 28.6273C19.9493 28.9562 19.8187 29.2715 19.5862 29.504C19.3536 29.7366 19.0383 29.8672 18.7095 29.8672H14.9898C14.1588 29.8656 13.3293 29.7946 12.5101 29.6551C10.7618 29.3569 9.08177 28.7458 7.55056 27.851C7.29753 27.7037 7.04977 27.5491 6.80733 27.3875C5.12925 26.2693 3.69499 24.8229 2.59104 23.1355C2.43951 22.9059 2.29464 22.6701 2.15641 22.4281C1.27106 20.8952 0.669478 19.2152 0.380621 17.4687C0.24878 16.6718 0.181744 15.8656 0.180176 15.0579V15.0234C0.180019 14.2043 0.247061 13.3864 0.380621 12.5782C0.669478 10.8317 1.27106 9.15168 2.15641 7.61881C2.29416 7.37817 2.43904 7.14238 2.59104 6.91139C3.69456 5.22362 5.12892 3.77715 6.80733 2.65938C7.05072 2.49731 7.29843 2.34274 7.55056 2.19583C9.08177 1.30107 10.7618 0.689938 12.5101 0.391842C13.3293 0.252249 14.1588 0.181284 14.9898 0.179688H15.0243C15.8435 0.179531 16.6613 0.246568 17.4696 0.380128C19.2161 0.668976 20.8962 1.27053 22.4291 2.15588C22.7046 2.31519 22.9753 2.48306 23.2412 2.65938C24.8841 3.75425 26.2937 5.16386 27.3886 6.8067C27.5649 7.07208 27.7328 7.34278 27.8922 7.61881C29.1064 9.72453 29.7823 12.0973 29.8601 14.5268C29.8642 14.648 29.867 14.7734 29.8677 14.8981Z" fill="#9300FC"/>
</svg>
