<svg width="48" height="25" viewBox="0 0 48 25" fill="none" xmlns="http://www.w3.org/2000/svg">
<path d="M10.6667 20.3337C9.56218 20.3337 8.66675 21.2291 8.66675 22.3337C8.66675 23.4382 9.56218 24.3337 10.6667 24.3337V20.3337ZM45.3334 24.3337C46.438 24.3337 47.3334 23.4382 47.3334 22.3337C47.3334 21.2291 46.438 20.3337 45.3334 20.3337V24.3337ZM2.66675 7.00032C1.56218 7.00032 0.666748 7.89575 0.666748 9.00032C0.666748 10.1049 1.56218 11.0003 2.66675 11.0003V7.00032ZM45.3334 11.0003C46.438 11.0003 47.3334 10.1049 47.3334 9.00032C47.3334 7.89575 46.438 7.00032 45.3334 7.00032V11.0003ZM21.3334 -6.33301C20.2288 -6.33301 19.3334 -5.43758 19.3334 -4.33301C19.3334 -3.22844 20.2288 -2.33301 21.3334 -2.33301V-6.33301ZM45.3334 -2.33301C46.438 -2.33301 47.3334 -3.22844 47.3334 -4.33301C47.3334 -5.43758 46.438 -6.33301 45.3334 -6.33301V-2.33301ZM10.6667 24.3337H45.3334V20.3337H10.6667V24.3337ZM2.66675 11.0003H45.3334V7.00032H2.66675V11.0003ZM21.3334 -2.33301H45.3334V-6.33301H21.3334V-2.33301Z" fill="white"/>
</svg>
