<svg width="48" height="48" viewBox="0 0 48 48" fill="none" xmlns="http://www.w3.org/2000/svg">
<rect width="48" height="48" rx="8" fill="#9300FC" fill-opacity="0.2"/>
<path d="M28.7073 24.7068C29.0978 24.3163 29.0978 23.6831 28.7073 23.2926C28.3167 22.902 27.6836 22.902 27.293 23.2926L28.7073 24.7068ZM22.4001 29.5997L21.693 30.3068C22.0835 30.6974 22.7167 30.6974 23.1072 30.3068L22.4001 29.5997ZM20.7071 26.4926C20.3166 26.1021 19.6834 26.1021 19.2929 26.4926C18.9024 26.8831 18.9024 27.5163 19.2929 27.9068L20.7071 26.4926ZM25.4285 11.372L26.1371 10.6664C25.9636 10.4921 25.732 10.388 25.4865 10.3737L25.4285 11.372ZM33.7992 19.7775L34.7931 19.6668C34.7681 19.4419 34.6675 19.2321 34.5078 19.0718L33.7992 19.7775ZM27.293 23.2926L21.693 28.8926L23.1072 30.3068L28.7073 24.7068L27.293 23.2926ZM19.2929 27.9068L21.693 30.3068L23.1072 28.8926L20.7071 26.4926L19.2929 27.9068ZM24.4285 11.372V17.1108H26.4285V11.372H24.4285ZM28.0952 20.7775H33.7992V18.7775H28.0952V20.7775ZM24.4285 17.1108C24.4285 19.1358 26.0702 20.7775 28.0952 20.7775V18.7775C27.1747 18.7775 26.4285 18.0313 26.4285 17.1108H24.4285ZM15 23.9997C15 19.1644 15.6045 16.3164 16.9172 14.6536C18.1684 13.0688 20.264 12.333 24 12.333V10.333C20.089 10.333 17.1845 11.0874 15.3475 13.4143C13.572 15.6633 13 19.1487 13 23.9997H15ZM24 35.6663C20.264 35.6663 18.1684 34.9306 16.9172 33.3457C15.6045 31.6829 15 28.835 15 23.9997H13C13 28.8507 13.572 32.336 15.3475 34.585C17.1845 36.9119 20.089 37.6663 24 37.6663V35.6663ZM33 23.9997C33 28.835 32.3955 31.6829 31.0828 33.3457C29.8316 34.9306 27.736 35.6663 24 35.6663V37.6663C27.911 37.6663 30.8155 36.9119 32.6525 34.585C34.428 32.336 35 28.8507 35 23.9997H33ZM24 12.333C24.4816 12.333 24.938 12.3453 25.3706 12.3704L25.4865 10.3737C25.0106 10.3461 24.5152 10.333 24 10.333V12.333ZM32.8054 19.8882C32.9382 21.0805 33 22.4436 33 23.9997H35C35 22.3946 34.9365 20.9538 34.7931 19.6668L32.8054 19.8882ZM24.72 12.0777L33.0907 20.4831L34.5078 19.0718L26.1371 10.6664L24.72 12.0777Z" fill="#9300FC"/>
</svg>
