<svg width="48" height="48" viewBox="0 0 48 48" fill="none" xmlns="http://www.w3.org/2000/svg">
<rect width="48" height="48" rx="8" fill="#9300FC" fill-opacity="0.2"/>
<path d="M12 23C11.4477 23 11 23.4477 11 24C11 24.5523 11.4477 25 12 25V23ZM36 25C36.5523 25 37 24.5523 37 24C37 23.4477 36.5523 23 36 23V25ZM25 12C25 11.4477 24.5523 11 24 11C23.4477 11 23 11.4477 23 12H25ZM23 36C23 36.5523 23.4477 37 24 37C24.5523 37 25 36.5523 25 36H23ZM32.3333 24C32.3333 28.6024 28.6024 32.3333 24 32.3333V34.3333C29.7069 34.3333 34.3333 29.7069 34.3333 24H32.3333ZM24 32.3333C19.3976 32.3333 15.6667 28.6024 15.6667 24H13.6667C13.6667 29.7069 18.2931 34.3333 24 34.3333V32.3333ZM15.6667 24C15.6667 19.3976 19.3976 15.6667 24 15.6667V13.6667C18.2931 13.6667 13.6667 18.2931 13.6667 24H15.6667ZM24 15.6667C28.6024 15.6667 32.3333 19.3976 32.3333 24H34.3333C34.3333 18.2931 29.7069 13.6667 24 13.6667V15.6667ZM12 25H36V23H12V25ZM23 12V36H25V12H23Z" fill="#9300FC"/>
</svg>
