<svg width="48" height="48" viewBox="0 0 48 48" fill="none" xmlns="http://www.w3.org/2000/svg">
<rect width="48" height="48" rx="8" fill="#9300FC" fill-opacity="0.2"/>
<path d="M36 17.333H37C37 16.7807 36.5523 16.333 36 16.333V17.333ZM11.2929 29.9592C10.9024 30.3498 10.9024 30.9829 11.2929 31.3734C11.6834 31.764 12.3166 31.764 12.7071 31.3734L11.2929 29.9592ZM21.8856 24.552L22.5927 23.8449L22.5927 23.8449L21.8856 24.552ZM23.4477 26.1141L22.7406 26.8212L23.4477 26.1141ZM28 16.333C27.4477 16.333 27 16.7807 27 17.333C27 17.8853 27.4477 18.333 28 18.333V16.333ZM35 25.333C35 25.8853 35.4477 26.333 36 26.333C36.5523 26.333 37 25.8853 37 25.333H35ZM35.2929 16.6259L26.5118 25.407L27.9261 26.8212L36.7071 18.0401L35.2929 16.6259ZM24.1548 25.4069L22.5927 23.8449L21.1785 25.2591L22.7406 26.8212L24.1548 25.4069ZM17.4073 23.8449L11.2929 29.9592L12.7071 31.3734L18.8215 25.2591L17.4073 23.8449ZM22.5927 23.8449C21.1608 22.4129 18.8392 22.4129 17.4073 23.8449L18.8215 25.2591C19.4724 24.6082 20.5276 24.6082 21.1785 25.2591L22.5927 23.8449ZM26.5118 25.407C25.861 26.0578 24.8057 26.0578 24.1548 25.4069L22.7406 26.8212C24.1725 28.2531 26.4941 28.2531 27.9261 26.8212L26.5118 25.407ZM28 18.333H36V16.333H28V18.333ZM35 17.333V25.333H37V17.333H35Z" fill="#9300FC"/>
</svg>
