<svg width="48" height="48" viewBox="0 0 48 48" fill="none" xmlns="http://www.w3.org/2000/svg">
<rect width="48" height="48" rx="8" fill="#9300FC" fill-opacity="0.2"/>
<path d="M39.374 20.7071C39.7645 20.3166 39.7645 19.6834 39.374 19.2929C38.9834 18.9024 38.3503 18.9024 37.9598 19.2929L39.374 20.7071ZM33.067 25.5999L32.3599 26.307C32.7504 26.6975 33.3835 26.6975 33.7741 26.307L33.067 25.5999ZM31.374 22.4928C30.9835 22.1023 30.3503 22.1023 29.9598 22.4929C29.5693 22.8834 29.5693 23.5166 29.9598 23.9071L31.374 22.4928ZM37.9598 19.2929L32.3599 24.8928L33.7741 26.307L39.374 20.7071L37.9598 19.2929ZM29.9598 23.9071L32.3599 26.307L33.7741 24.8928L31.374 22.4928L29.9598 23.9071ZM16.6668 37.0002H31.3335V35.0002H16.6668V37.0002ZM24.0002 26.3335C22.6938 26.3335 19.8859 26.3001 17.3972 26.9968C16.1477 27.3466 14.8909 27.9027 13.935 28.8144C12.9494 29.7545 12.3335 31.0278 12.3335 32.6668H14.3335C14.3335 31.5853 14.7176 30.8318 15.3153 30.2617C15.9428 29.6633 16.8526 29.2262 17.9364 28.9228C20.1145 28.313 22.6399 28.3335 24.0002 28.3335V26.3335ZM24.0002 28.3335C25.3605 28.3335 27.8859 28.313 30.0639 28.9228C31.1477 29.2262 32.0575 29.6633 32.685 30.2617C33.2827 30.8318 33.6668 31.5853 33.6668 32.6668H35.6668C35.6668 31.0278 35.051 29.7545 34.0653 28.8144C33.1094 27.9027 31.8526 27.3466 30.6031 26.9968C28.1145 26.3001 25.3065 26.3335 24.0002 26.3335V28.3335ZM12.3335 32.6668C12.3335 35.0601 14.2736 37.0002 16.6668 37.0002V35.0002C15.3782 35.0002 14.3335 33.9555 14.3335 32.6668H12.3335ZM33.6668 32.6668C33.6668 33.9555 32.6222 35.0002 31.3335 35.0002V37.0002C33.7267 37.0002 35.6668 35.0601 35.6668 32.6668H33.6668ZM28.3335 17.3333C28.3335 19.7266 26.3934 21.6667 24.0002 21.6667V23.6667C27.498 23.6667 30.3335 20.8311 30.3335 17.3333H28.3335ZM24.0002 21.6667C21.6069 21.6667 19.6668 19.7266 19.6668 17.3333H17.6668C17.6668 20.8311 20.5024 23.6667 24.0002 23.6667V21.6667ZM19.6668 17.3333C19.6668 14.9401 21.6069 13 24.0002 13V11C20.5024 11 17.6668 13.8355 17.6668 17.3333H19.6668ZM24.0002 13C26.3934 13 28.3335 14.9401 28.3335 17.3333H30.3335C30.3335 13.8355 27.498 11 24.0002 11V13Z" fill="#9300FC"/>
</svg>
