<svg width="44" height="46" viewBox="0 0 44 46" fill="none" xmlns="http://www.w3.org/2000/svg">
<path d="M43.0531 11.9609V20.2418H34.8207V45.4674H26.3027V20.2418H18.0703V11.9609H43.0531Z" fill="#9300FC"/>
<path d="M43.0531 11.9609V20.2418H34.8207V45.4674H26.3027V20.2418H18.0703V11.9609H43.0531Z" fill="url(#paint0_linear_855_2657)"/>
<path d="M0.13119 11.9607V11.9607C4.83552 11.9607 8.64914 15.7743 8.64914 20.4786V45.4671V45.4671C3.94481 45.4671 0.13119 41.6535 0.13119 36.9492V28.7139V11.9607Z" fill="#9300FC"/>
<path d="M5.82037e-06 4.25898C2.60587e-06 1.90681 1.90681 0 4.25898 0V0C6.61114 0 8.51795 1.9068 8.51796 4.25897L8.51796 4.34646C8.51796 6.69863 6.61115 8.60543 4.25898 8.60543V8.60543C1.90682 8.60543 9.15442e-06 6.69863 5.93993e-06 4.34647L5.82037e-06 4.25898Z" fill="#9300FC"/>
<path d="M5.82037e-06 4.25898C2.60587e-06 1.90681 1.90681 0 4.25898 0V0C6.61114 0 8.51795 1.9068 8.51796 4.25897L8.51796 4.34646C8.51796 6.69863 6.61115 8.60543 4.25898 8.60543V8.60543C1.90682 8.60543 9.15442e-06 6.69863 5.93993e-06 4.34647L5.82037e-06 4.25898Z" fill="url(#paint1_linear_855_2657)"/>
<defs>
<linearGradient id="paint0_linear_855_2657" x1="30.5617" y1="11.9609" x2="30.5617" y2="45.4674" gradientUnits="userSpaceOnUse">
<stop stop-color="#9300FC"/>
<stop offset="1" stop-color="#9300FC" stop-opacity="0.4"/>
</linearGradient>
<linearGradient id="paint1_linear_855_2657" x1="4.32457" y1="0" x2="4.32457" y2="45.4671" gradientUnits="userSpaceOnUse">
<stop stop-color="#9300FC"/>
<stop offset="1" stop-color="#9300FC" stop-opacity="0.4"/>
</linearGradient>
</defs>
</svg>
