<svg width="103" height="34" viewBox="0 0 103 34" fill="none" xmlns="http://www.w3.org/2000/svg">
<path d="M25.7792 32.812H17.7429L11.5755 22.0421H8.02451V32.812H0.548828V0.0341797H13.6313C16.7461 0.0341797 19.3938 1.12677 21.5742 3.31196C23.7546 5.49714 24.8448 8.15058 24.8448 11.2723C24.8448 13.2389 24.2841 15.0807 23.1628 16.7977C22.0726 18.5146 20.6241 19.8413 18.8175 20.7778L25.7792 32.812ZM13.6313 7.05799H8.02451V15.4866H13.6313C14.6592 15.4866 15.5313 15.0807 16.2478 14.2691C16.9953 13.4575 17.3691 12.4585 17.3691 11.2723C17.3691 10.086 16.9953 9.08709 16.2478 8.27545C15.5313 7.46381 14.6592 7.05799 13.6313 7.05799Z" fill="white"/>
<path d="M35.328 22.2294V0.0341797H42.8037V21.5739C42.8037 24.6331 44.5169 26.1628 47.9432 26.1628C51.3696 26.1628 53.0828 24.6331 53.0828 21.5739V0.0341797H60.5584V22.2294C60.5584 25.6945 59.3748 28.426 57.0075 30.4239C54.609 32.453 51.5876 33.4675 47.9432 33.4675C44.2988 33.4675 41.2774 32.453 38.879 30.4239C36.5117 28.426 35.328 25.6945 35.328 22.2294Z" fill="white"/>
<path d="M95.5244 0.0341797H103V32.812H95.5244V13.754L87.0675 27.6612H86.2265L77.7696 13.754V32.812H70.294V0.0341797H77.7696L86.647 14.5969L95.5244 0.0341797Z" fill="white"/>
<path d="M95.3265 0.0341797H102.802V32.812H95.3265V13.754L86.8697 27.6612H86.0287L77.5718 13.754V32.812H70.0961V0.0341797H77.5718L86.4492 14.5969L95.3265 0.0341797Z" fill="white"/>
</svg>
