<svg width="30" height="29" viewBox="0 0 30 29" fill="none" xmlns="http://www.w3.org/2000/svg">
<path d="M1.00853 9.58784H7.0065V28.875H1.00853V9.58784ZM4.01866 0C5.93623 0 7.49704 1.56081 7.49704 3.47838C7.49704 5.39595 5.93623 6.95676 4.01866 6.95676C2.08995 6.95676 0.540283 5.39595 0.540283 3.47838C0.540283 1.56081 2.08995 0 4.01866 0Z" fill="#9300FC"/>
<path d="M10.7747 9.58739H16.5162V12.2296H16.5943C17.397 10.7134 19.348 9.11914 22.2689 9.11914C28.3338 9.11914 29.4598 13.1104 29.4598 18.3056V28.8745H23.473V19.4985C23.473 17.2577 23.4395 14.3813 20.3625 14.3813C17.2409 14.3813 16.7726 16.8229 16.7726 19.3313V28.8745H10.7858V9.58739H10.7747Z" fill="#9300FC"/>
</svg>
