<svg width="32" height="21" viewBox="0 0 32 21" fill="none" xmlns="http://www.w3.org/2000/svg">
<path d="M9.27611 0.390625C10.2154 0.390625 11.0692 0.468249 11.8455 0.639023C12.614 0.802034 13.2738 1.07372 13.8327 1.45408C14.3838 1.82667 14.8107 2.33123 15.1135 2.95223C15.4162 3.57322 15.5637 4.34947 15.5637 5.26543C15.5637 6.25902 15.3386 7.08184 14.8883 7.74941C14.4381 8.40922 13.7706 8.95259 12.8779 9.37176C14.0888 9.72107 14.9893 10.3343 15.5792 11.2037C16.1769 12.0808 16.4719 13.1288 16.4719 14.363C16.4719 15.3644 16.2778 16.2182 15.8975 16.9401C15.5093 17.6698 14.9893 18.2675 14.3372 18.7255C13.6852 19.1835 12.94 19.525 12.1016 19.7501C11.2711 19.9675 10.4094 20.0839 9.53227 20.0839H0V0.390625H9.27611ZM8.71721 8.33936C9.48569 8.33936 10.1222 8.16082 10.6268 7.78822C11.1236 7.42339 11.3642 6.82568 11.3642 5.9951C11.3642 5.53712 11.2866 5.15676 11.1236 4.86179C10.9528 4.56681 10.7354 4.3417 10.456 4.17869C10.1766 4.00792 9.86605 3.89925 9.50122 3.82938C9.14415 3.75952 8.77155 3.72847 8.38343 3.72847H4.33144V8.33159H8.71721V8.33936ZM8.95785 16.7228C9.38478 16.7228 9.78843 16.684 10.1766 16.5986C10.5647 16.5132 10.9062 16.3812 11.2012 16.1794C11.4884 15.9854 11.729 15.7292 11.9076 15.3954C12.0861 15.0616 12.1637 14.6347 12.1637 14.1224C12.1637 13.1055 11.8765 12.3913 11.3099 11.9489C10.7432 11.5142 9.98249 11.3046 9.051 11.3046H4.3392V16.7228H8.95785Z" fill="#9300FC"/>
<path d="M22.6586 16.6531C23.2485 17.2275 24.0946 17.5147 25.1891 17.5147C25.9809 17.5147 26.664 17.3129 27.2307 16.917C27.7973 16.5211 28.1466 16.0942 28.2786 15.6517H31.7251C31.174 17.3672 30.3279 18.5937 29.1868 19.3311C28.0535 20.0686 26.6718 20.4412 25.0572 20.4412C23.9316 20.4412 22.9225 20.2626 22.0143 19.8978C21.1061 19.533 20.3531 19.0284 19.7166 18.3686C19.0956 17.701 18.6144 16.917 18.2728 15.9933C17.9313 15.0773 17.7605 14.0604 17.7605 12.9582C17.7605 11.8947 17.939 10.8934 18.2883 9.9774C18.6454 9.05367 19.1344 8.25414 19.7787 7.58657C20.423 6.91124 21.1915 6.38339 22.0919 5.99527C22.9846 5.60715 23.9704 5.41309 25.0649 5.41309C26.2681 5.41309 27.3238 5.64596 28.232 6.11947C29.1325 6.58521 29.8699 7.21397 30.4521 8.00574C31.0343 8.79751 31.4457 9.69795 31.7018 10.7071C31.958 11.7162 32.0511 12.7719 31.9735 13.8819H21.6883C21.6883 15.0152 22.0686 16.0864 22.6586 16.6531ZM27.153 9.1701C26.6873 8.65778 25.9033 8.37833 24.9407 8.37833C24.312 8.37833 23.7997 8.48701 23.3805 8.69659C22.9769 8.90618 22.6431 9.1701 22.3869 9.4806C22.1307 9.79886 21.96 10.1326 21.8591 10.482C21.7582 10.8313 21.6961 11.1418 21.6805 11.4212H28.0535C27.9681 10.4276 27.6266 9.69019 27.153 9.1701Z" fill="#9300FC"/>
<path d="M28.8685 1.70996H20.8887V3.65057H28.8685V1.70996Z" fill="#9300FC"/>
</svg>
