<svg width="20" height="20" viewBox="0 0 20 20" fill="none" xmlns="http://www.w3.org/2000/svg">
<path d="M13.8571 11.2857H14.6071V11.2857L13.8571 11.2857ZM18.5986 12.6658L19.2311 13.0689L19.2311 13.0689L18.5986 12.6658ZM15.5719 18.002C15.9117 17.765 15.995 17.2975 15.758 16.9578C15.521 16.618 15.0535 16.5347 14.7138 16.7717L15.5719 18.002ZM9.99997 13.1071C8.28394 13.1071 6.89282 11.716 6.89282 9.99997H5.39282C5.39282 12.5444 7.45551 14.6071 9.99997 14.6071V13.1071ZM13.1071 9.99997C13.1071 11.716 11.716 13.1071 9.99997 13.1071V14.6071C12.5444 14.6071 14.6071 12.5444 14.6071 9.99997H13.1071ZM9.99997 6.89282C11.716 6.89282 13.1071 8.28394 13.1071 9.99997H14.6071C14.6071 7.45551 12.5444 5.39282 9.99997 5.39282V6.89282ZM9.99997 5.39282C7.45551 5.39282 5.39282 7.45551 5.39282 9.99997H6.89282C6.89282 8.28394 8.28394 6.89282 9.99997 6.89282V5.39282ZM13.1071 9.99999L13.1071 11.2857L14.6071 11.2857L14.6071 9.99994L13.1071 9.99999ZM19.75 11.2857V10H18.25V11.2857H19.75ZM0.25 10C0.25 15.3848 4.61522 19.75 10 19.75V18.25C5.44365 18.25 1.75 14.5563 1.75 10H0.25ZM19.75 10C19.75 4.61522 15.3848 0.25 10 0.25V1.75C14.5563 1.75 18.25 5.44365 18.25 10H19.75ZM16.4286 14.6071C17.6077 14.6071 18.6427 13.9921 19.2311 13.0689L17.9662 12.2628C17.6416 12.772 17.074 13.1071 16.4286 13.1071V14.6071ZM19.2311 13.0689C19.5597 12.5533 19.75 11.9406 19.75 11.2857H18.25C18.25 11.6466 18.1458 11.9809 17.9662 12.2628L19.2311 13.0689ZM10 0.25C4.61522 0.25 0.25 4.61522 0.25 10H1.75C1.75 5.44365 5.44365 1.75 10 1.75V0.25ZM13.1071 11.2857C13.1071 13.1201 14.5942 14.6071 16.4286 14.6071V13.1071C15.4226 13.1071 14.6071 12.2917 14.6071 11.2857H13.1071ZM10 19.75C12.0705 19.75 13.9924 19.1038 15.5719 18.002L14.7138 16.7717C13.3778 17.7036 11.7538 18.25 10 18.25V19.75Z" fill="white"/>
</svg>
