<svg width="32" height="32" viewBox="0 0 32 32" fill="none" xmlns="http://www.w3.org/2000/svg">
<path d="M16.0001 0.761719C7.58406 0.761719 0.761963 7.58381 0.761963 15.9998C0.761963 24.4158 7.58406 31.2379 16.0001 31.2379C24.4161 31.2379 31.2382 24.4158 31.2382 15.9998C31.2382 7.58381 24.4161 0.761719 16.0001 0.761719ZM16.0001 2.96972C19.3197 2.96972 22.3498 4.21162 24.6507 6.25505C22.9601 8.48515 20.3917 9.9701 17.818 10.9751C16.4153 8.40896 14.6881 5.70343 12.9304 3.33315C13.914 3.09543 14.9418 2.96972 16.0001 2.96972ZM10.4564 4.20476C12.1547 6.74572 13.8004 9.10229 15.3044 11.7697C11.5018 12.7549 7.20617 13.3461 3.23741 13.356C4.07398 9.29658 6.80082 5.92591 10.4564 4.20476ZM26.0961 7.7621C27.914 9.9861 29.0088 12.8227 29.0302 15.9137C26.0161 15.3202 23.018 15.164 19.9666 15.4718C19.6229 14.6162 19.2077 13.804 18.8092 12.9271C21.4401 11.8657 24.253 10.0493 26.0961 7.7621ZM16.3627 13.7857C16.6888 14.4798 17.0667 15.2151 17.421 15.9671C13.1772 17.8383 8.66369 20.3389 6.32007 24.7229C4.23778 22.4135 2.96997 19.3537 2.96997 15.9998C2.96997 15.8726 2.97225 15.7453 2.97606 15.6189C7.52082 15.5968 11.9818 15.0284 16.3627 13.7857ZM28.986 17.0848C28.9822 17.1351 28.9776 17.1861 28.9722 17.2364C28.9776 17.1861 28.9822 17.1358 28.986 17.0848ZM23.2481 17.3385C25.1422 17.3324 27.0995 17.5968 28.8679 18.0623C28.2896 21.7011 26.2035 24.8394 23.2702 26.8143C22.5707 23.6333 21.9041 20.5895 20.7254 17.5206C21.5384 17.3994 22.3871 17.3408 23.2481 17.3385ZM28.9357 17.5747C28.9266 17.6493 28.9182 17.7225 28.9075 17.7964C28.9182 17.7217 28.9273 17.6486 28.9357 17.5747ZM18.314 18.1164C19.5155 21.2189 20.458 24.6551 21.0903 27.9991C19.5262 28.6634 17.8065 29.0307 16.0001 29.0307C12.9867 29.0307 10.2119 28.0067 8.00464 26.2886C10.3643 22.46 14.0191 19.5632 18.314 18.1164Z" fill="#9300FC"/>
</svg>
