<svg width="17" height="30" viewBox="0 0 17 30" fill="none" xmlns="http://www.w3.org/2000/svg">
<path d="M1.11612 27.4498C0.627961 27.9379 0.627961 28.7294 1.11612 29.2175C1.60427 29.7057 2.39573 29.7057 2.88388 29.2175L1.11612 27.4498ZM15.3333 15.0003L16.2172 15.8842C16.4516 15.6498 16.5833 15.3318 16.5833 15.0003C16.5833 14.6688 16.4516 14.3509 16.2172 14.1164L15.3333 15.0003ZM2.88388 0.783109C2.39573 0.294953 1.60427 0.294953 1.11612 0.783109C0.627961 1.27126 0.627961 2.06272 1.11612 2.55088L2.88388 0.783109ZM2.88388 29.2175L16.2172 15.8842L14.4495 14.1164L1.11612 27.4498L2.88388 29.2175ZM16.2172 14.1164L2.88388 0.783109L1.11612 2.55088L14.4495 15.8842L16.2172 14.1164Z" fill="white"/>
</svg>
