<svg width="17" height="30" viewBox="0 0 17 30" fill="none" xmlns="http://www.w3.org/2000/svg">
<path d="M15.8842 2.55088C16.3724 2.06272 16.3724 1.27126 15.8842 0.783109C15.3961 0.294953 14.6046 0.294953 14.1164 0.783109L15.8842 2.55088ZM1.66699 15.0003L0.783109 14.1164C0.294953 14.6046 0.294953 15.3961 0.783109 15.8842L1.66699 15.0003ZM14.1164 29.2175C14.6046 29.7057 15.3961 29.7057 15.8842 29.2175C16.3724 28.7294 16.3724 27.9379 15.8842 27.4498L14.1164 29.2175ZM14.1164 0.783109L0.783109 14.1164L2.55088 15.8842L15.8842 2.55088L14.1164 0.783109ZM0.783109 15.8842L14.1164 29.2175L15.8842 27.4498L2.55088 14.1164L0.783109 15.8842Z" fill="white"/>
</svg>
